<?xml version="1.0" encoding="UTF-8"?>
<svg xmlns="http://www.w3.org/2000/svg" xmlns:xlink="http://www.w3.org/1999/xlink" width="854pt" height="480pt" viewBox="0 0 854 480" version="1.1">
<defs>
<g>
<symbol overflow="visible" id="glyph0-0">
<path style="stroke:none;" d="M 0.222656 0.785156 L 0.222656 -3.132812 L 2.441406 -3.132812 L 2.441406 0.785156 Z M 0.472656 0.539062 L 2.195312 0.539062 L 2.195312 -2.882812 L 0.472656 -2.882812 Z "/>
</symbol>
<symbol overflow="visible" id="glyph0-1">
<path style="stroke:none;" d="M 2.234375 -3.238281 L 2.234375 -2.882812 L 0.75 -2.882812 L 0.75 -1.957031 C 0.824219 -2.007812 0.910156 -2.046875 1.011719 -2.074219 C 1.109375 -2.097656 1.222656 -2.109375 1.351562 -2.113281 C 1.699219 -2.109375 1.976562 -2.011719 2.179688 -1.820312 C 2.382812 -1.625 2.484375 -1.359375 2.484375 -1.027344 C 2.484375 -0.679688 2.378906 -0.414062 2.175781 -0.222656 C 1.96875 -0.0351562 1.683594 0.0585938 1.316406 0.0625 C 1.164062 0.0585938 1.011719 0.0390625 0.855469 0.0078125 C 0.699219 -0.03125 0.539062 -0.0820312 0.378906 -0.15625 L 0.378906 -0.785156 L 0.621094 -0.785156 C 0.632812 -0.578125 0.695312 -0.417969 0.816406 -0.3125 C 0.933594 -0.203125 1.101562 -0.152344 1.316406 -0.152344 C 1.539062 -0.152344 1.714844 -0.226562 1.839844 -0.375 C 1.964844 -0.523438 2.027344 -0.738281 2.027344 -1.027344 C 2.027344 -1.304688 1.964844 -1.519531 1.84375 -1.671875 C 1.71875 -1.820312 1.542969 -1.898438 1.316406 -1.898438 C 1.183594 -1.898438 1.070312 -1.875 0.972656 -1.828125 C 0.871094 -1.78125 0.78125 -1.707031 0.707031 -1.613281 L 0.519531 -1.613281 L 0.519531 -3.238281 Z "/>
</symbol>
</g>
</defs>
<g id="surface6">
<g style="fill:rgb(100%,100%,100%);fill-opacity:1;">
  <use xlink:href="#glyph0-1" x="30" y="24.124023"/>
</g>
</g>
</svg>
