<?xml version="1.0" encoding="UTF-8"?>
<svg xmlns="http://www.w3.org/2000/svg" xmlns:xlink="http://www.w3.org/1999/xlink" width="1920pt" height="1080pt" viewBox="0 0 1920 1080" version="1.1">
<defs>
<g>
<symbol overflow="visible" id="glyph0-0">
<path style="stroke:none;" d="M 0.277344 0.980469 L 0.277344 -3.917969 L 3.054688 -3.917969 L 3.054688 0.980469 Z M 0.589844 0.671875 L 2.746094 0.671875 L 2.746094 -3.605469 L 0.589844 -3.605469 Z "/>
</symbol>
<symbol overflow="visible" id="glyph0-1">
<path style="stroke:none;" d="M 0.304688 0 L 0.304688 -0.289062 L 0.820312 -0.289062 L 0.820312 -3.761719 L 0.304688 -3.761719 L 0.304688 -4.050781 L 3.566406 -4.050781 L 3.566406 -3.148438 L 3.234375 -3.148438 L 3.234375 -3.714844 L 1.371094 -3.714844 L 1.371094 -2.359375 L 2.699219 -2.359375 L 2.699219 -2.867188 L 3.03125 -2.867188 L 3.03125 -1.523438 L 2.699219 -1.523438 L 2.699219 -2.027344 L 1.371094 -2.027344 L 1.371094 -0.332031 L 3.277344 -0.332031 L 3.277344 -0.902344 L 3.609375 -0.902344 L 3.609375 0 Z "/>
</symbol>
<symbol overflow="visible" id="glyph0-2">
<path style="stroke:none;" d="M 1.140625 -0.289062 L 1.613281 -0.289062 L 1.613281 0 L 0.160156 0 L 0.160156 -0.289062 L 0.640625 -0.289062 L 0.640625 -3.933594 L 0.160156 -3.933594 L 0.160156 -4.222656 L 1.140625 -4.222656 Z "/>
</symbol>
<symbol overflow="visible" id="glyph0-3">
<path style="stroke:none;" d="M 3.011719 -1.390625 L 0.859375 -1.390625 L 0.859375 -1.367188 C 0.855469 -0.976562 0.929688 -0.683594 1.078125 -0.488281 C 1.226562 -0.285156 1.441406 -0.1875 1.726562 -0.191406 C 1.941406 -0.1875 2.121094 -0.246094 2.265625 -0.363281 C 2.402344 -0.476562 2.5 -0.644531 2.5625 -0.875 L 2.960938 -0.875 C 2.878906 -0.554688 2.734375 -0.316406 2.519531 -0.160156 C 2.304688 0 2.023438 0.0742188 1.675781 0.078125 C 1.253906 0.0742188 0.914062 -0.0585938 0.660156 -0.335938 C 0.402344 -0.609375 0.273438 -0.980469 0.277344 -1.441406 C 0.273438 -1.894531 0.398438 -2.261719 0.652344 -2.542969 C 0.902344 -2.820312 1.234375 -2.957031 1.644531 -2.960938 C 2.078125 -2.957031 2.410156 -2.824219 2.644531 -2.558594 C 2.875 -2.289062 3 -1.898438 3.011719 -1.390625 Z M 2.421875 -1.675781 C 2.40625 -2.011719 2.335938 -2.265625 2.207031 -2.4375 C 2.074219 -2.609375 1.886719 -2.695312 1.644531 -2.695312 C 1.414062 -2.695312 1.234375 -2.609375 1.101562 -2.4375 C 0.96875 -2.265625 0.886719 -2.011719 0.859375 -1.675781 Z "/>
</symbol>
</g>
</defs>
<g id="surface6">
<g style="fill:rgb(100%,100%,100%);fill-opacity:1;">
  <use xlink:href="#glyph0-1" x="30" y="25.157227"/>
  <use xlink:href="#glyph0-2" x="34" y="25.157227"/>
  <use xlink:href="#glyph0-3" x="36" y="25.157227"/>
</g>
</g>
</svg>
