<?xml version="1.0" encoding="UTF-8"?>
<svg xmlns="http://www.w3.org/2000/svg" xmlns:xlink="http://www.w3.org/1999/xlink" width="1280pt" height="720pt" viewBox="0 0 1280 720" version="1.1">
<defs>
<g>
<symbol overflow="visible" id="glyph0-0">
<path style="stroke:none;" d="M 0.222656 0.785156 L 0.222656 -3.132812 L 2.441406 -3.132812 L 2.441406 0.785156 Z M 0.472656 0.539062 L 2.195312 0.539062 L 2.195312 -2.882812 L 0.472656 -2.882812 Z "/>
</symbol>
<symbol overflow="visible" id="glyph0-1">
<path style="stroke:none;" d="M 0.433594 -3.101562 C 0.601562 -3.164062 0.761719 -3.214844 0.917969 -3.246094 C 1.070312 -3.277344 1.214844 -3.292969 1.355469 -3.296875 C 1.667969 -3.292969 1.917969 -3.222656 2.097656 -3.089844 C 2.273438 -2.949219 2.359375 -2.761719 2.363281 -2.523438 C 2.359375 -2.324219 2.300781 -2.160156 2.179688 -2.035156 C 2.054688 -1.902344 1.878906 -1.816406 1.65625 -1.769531 C 1.921875 -1.730469 2.128906 -1.632812 2.277344 -1.476562 C 2.421875 -1.320312 2.496094 -1.117188 2.496094 -0.875 C 2.496094 -0.570312 2.394531 -0.339844 2.191406 -0.179688 C 1.988281 -0.0195312 1.695312 0.0585938 1.316406 0.0625 C 1.144531 0.0585938 0.980469 0.0390625 0.820312 0.0078125 C 0.65625 -0.03125 0.496094 -0.0820312 0.339844 -0.15625 L 0.339844 -0.785156 L 0.582031 -0.785156 C 0.589844 -0.574219 0.660156 -0.414062 0.789062 -0.3125 C 0.914062 -0.203125 1.09375 -0.152344 1.324219 -0.152344 C 1.542969 -0.152344 1.714844 -0.214844 1.847656 -0.34375 C 1.972656 -0.46875 2.039062 -0.644531 2.039062 -0.871094 C 2.039062 -1.125 1.972656 -1.316406 1.839844 -1.449219 C 1.707031 -1.574219 1.511719 -1.640625 1.261719 -1.644531 L 1.058594 -1.644531 L 1.058594 -1.867188 L 1.164062 -1.867188 C 1.417969 -1.863281 1.609375 -1.914062 1.734375 -2.023438 C 1.859375 -2.125 1.921875 -2.285156 1.925781 -2.496094 C 1.921875 -2.683594 1.871094 -2.828125 1.769531 -2.929688 C 1.664062 -3.03125 1.511719 -3.082031 1.320312 -3.082031 C 1.121094 -3.082031 0.96875 -3.035156 0.863281 -2.941406 C 0.753906 -2.847656 0.691406 -2.710938 0.675781 -2.53125 L 0.433594 -2.53125 Z "/>
</symbol>
<symbol overflow="visible" id="glyph0-2">
<path style="stroke:none;" d="M 0.417969 -0.226562 C 0.414062 -0.304688 0.441406 -0.371094 0.5 -0.429688 C 0.550781 -0.484375 0.621094 -0.515625 0.707031 -0.515625 C 0.785156 -0.515625 0.851562 -0.484375 0.910156 -0.429688 C 0.964844 -0.371094 0.996094 -0.304688 0.996094 -0.226562 C 0.996094 -0.144531 0.964844 -0.0742188 0.910156 -0.0195312 C 0.851562 0.0351562 0.785156 0.0585938 0.707031 0.0625 C 0.621094 0.0585938 0.550781 0.0351562 0.5 -0.0195312 C 0.441406 -0.0742188 0.414062 -0.144531 0.417969 -0.226562 Z "/>
</symbol>
<symbol overflow="visible" id="glyph0-3">
<path style="stroke:none;" d="M 2.234375 -3.238281 L 2.234375 -2.882812 L 0.75 -2.882812 L 0.75 -1.957031 C 0.824219 -2.007812 0.910156 -2.046875 1.011719 -2.074219 C 1.109375 -2.097656 1.222656 -2.109375 1.351562 -2.113281 C 1.699219 -2.109375 1.976562 -2.011719 2.179688 -1.820312 C 2.382812 -1.625 2.484375 -1.359375 2.484375 -1.027344 C 2.484375 -0.679688 2.378906 -0.414062 2.175781 -0.222656 C 1.96875 -0.0351562 1.683594 0.0585938 1.316406 0.0625 C 1.164062 0.0585938 1.011719 0.0390625 0.855469 0.0078125 C 0.699219 -0.03125 0.539062 -0.0820312 0.378906 -0.15625 L 0.378906 -0.785156 L 0.621094 -0.785156 C 0.632812 -0.578125 0.695312 -0.417969 0.816406 -0.3125 C 0.933594 -0.203125 1.101562 -0.152344 1.316406 -0.152344 C 1.539062 -0.152344 1.714844 -0.226562 1.839844 -0.375 C 1.964844 -0.523438 2.027344 -0.738281 2.027344 -1.027344 C 2.027344 -1.304688 1.964844 -1.519531 1.84375 -1.671875 C 1.71875 -1.820312 1.542969 -1.898438 1.316406 -1.898438 C 1.183594 -1.898438 1.070312 -1.875 0.972656 -1.828125 C 0.871094 -1.78125 0.78125 -1.707031 0.707031 -1.613281 L 0.519531 -1.613281 L 0.519531 -3.238281 Z "/>
</symbol>
</g>
</defs>
<g id="surface181">
<g style="fill:rgb(100%,100%,100%);fill-opacity:1;">
  <use xlink:href="#glyph0-1" x="30" y="24.124023"/>
  <use xlink:href="#glyph0-2" x="33" y="24.124023"/>
  <use xlink:href="#glyph0-1" x="34" y="24.124023"/>
  <use xlink:href="#glyph0-3" x="37" y="24.124023"/>
</g>
</g>
</svg>
